<svg height="512pt" viewBox="0 -9 512.00059 512" width="512pt" xmlns="http://www.w3.org/2000/svg"><path d="m497.722656 390.675781-.050781-.078125-.074219-.109375-91.25-132.519531c-13.886718-22.433594-38.390625-36.085938-64.773437-36.082031h-171.132813c-26.382812-.003907-50.886718 13.648437-64.769531 36.082031l-91.257813 132.507812-.085937.121094v.078125c-10.46875 15.675781-6.242187 36.871094 9.433594 47.339844 5.597656 3.738281 12.175781 5.738281 18.90625 5.746094h426.683593c18.851563-.007813 34.128907-15.296875 34.117188-34.148438 0-6.742187-2-13.332031-5.746094-18.9375zm0 0" fill="#0f5584"/><path d="m379.253906 116.597656-43.644531-65.453125c-17.742187-26.613281-47.613281-42.597656-79.601563-42.597656-31.984374 0-61.855468 15.984375-79.601562 42.597656l-43.640625 65.453125c-8.667969 13.011719-13.292969 28.292969-13.292969 43.925782-.003906 12.292968 2.859375 24.417968 8.359375 35.414062l51.375 102.753906h153.605469l51.371094-102.753906c5.503906-10.996094 8.367187-23.121094 8.363281-35.414062 0-15.632813-4.628906-30.914063-13.292969-43.925782zm0 0" fill="#3a5565"/><path d="m196.273438 102.417969h119.472656v101.054687c0 19.59375-15.886719 35.480469-35.484375 35.480469h-48.503907c-19.597656 0-35.484374-15.882813-35.484374-35.480469zm0 0" fill="#f8c09c"/><path d="m242.355469 171.273438c8.289062-5.519532 19.085937-5.519532 27.375 0 7.375 4.925781 16.820312 5.515624 24.75 1.546874l21.265625-10.617187v-59.785156h-119.472656v59.734375l21.335937 10.675781c7.925781 3.964844 17.375 3.371094 24.746094-1.554687zm0 0" fill="#77604f"/><path d="m315.746094 119.484375 76.273437 33.902344c-1.132812-13.136719-5.53125-25.785157-12.800781-36.789063l-43.640625-65.453125c-29.3125-43.960937-88.710937-55.839843-132.671875-26.53125-10.507812 7.007813-19.527344 16.023438-26.53125 26.53125l-43.644531 65.453125c-7.269531 11.003906-11.667969 23.652344-12.796875 36.789063l76.339844-33.902344zm0 0" fill="#2276bb"/><path d="m119.472656 298.691406h273.074219v187.738282h-273.074219zm0 0" fill="#d2d7d6"/><path d="m504.765625 385.835938-91.164063-132.375c-8.125-13.039063-19.625-23.640626-33.28125-30.675782l11.527344-23.042968c14.082032-28.160157 11.988282-61.703126-5.480468-87.894532l-43.65625-65.429687c-31.914063-47.882813-96.605469-60.828125-144.492188-28.914063-11.453125 7.636719-21.277344 17.460938-28.910156 28.914063l-43.632813 65.445312c-17.46875 26.191407-19.5625 59.738281-5.480469 87.894531l11.519532 23.042969c-13.550782 6.949219-24.976563 17.425781-33.074219 30.328125l-91.386719 132.707032c-13.140625 19.5625-7.933594 46.070312 11.628906 59.210937 7.03125 4.722656 15.3125 7.246094 23.785157 7.25h68.269531v34.132813c0 4.714843 3.820312 8.535156 8.535156 8.535156h273.074219c4.714844 0 8.535156-3.820313 8.535156-8.535156v-34.132813h68.269531c23.566407-.011719 42.660157-19.125 42.648438-42.6875-.003906-8.464844-2.523438-16.738281-7.242188-23.765625zm-364.890625-264.542969 43.597656-65.410157c26.695313-40.042968 80.796875-50.859374 120.835938-24.167968 9.574218 6.382812 17.785156 14.597656 24.167968 24.167968l43.632813 65.453126c3.605469 5.453124 6.441406 11.382812 8.421875 17.613281l-61.355469-27.265625h-.070312c-1.058594-.46875-2.203125-.71875-3.359375-.734375h-119.472656c-1.175782.003906-2.335938.246093-3.414063.71875h-.066406l-61.359375 27.308593c1.984375-6.242187 4.824218-12.179687 8.441406-17.640624zm150.730469 43.847656c-5.195313 2.589844-11.378907 2.207031-16.214844-1.007813-11.148437-7.46875-25.699219-7.46875-36.847656 0-4.824219 3.195313-10.988281 3.582032-16.171875 1.007813l-16.5625-8.261719v-28.863281h102.402344v28.863281zm16.605469 10.820313v27.511718c-.019532 14.875-12.074219 26.929688-26.949219 26.949219h-48.503907c-14.878906-.019531-26.933593-12.074219-26.949218-26.949219v-27.511718l8.976562 4.496093c10.664063 5.3125 23.359375 4.519531 33.28125-2.082031 5.421875-3.625 12.496094-3.625 17.917969 0 9.921875 6.601562 22.617187 7.394531 33.285156 2.082031zm-179.207032-15.429688c0-.476562.09375-.941406.101563-1.410156l59.632812-26.503906v70.828124c.011719 24.3125 19.707031 44.019532 44.019531 44.042969h48.503907c24.300781-.023437 43.992187-19.714843 44.015625-44.015625v-70.828125l59.632812 26.503907c0 .46875.101563.929687.101563 1.410156-.015625 10.957031-2.566407 21.765625-7.457031 31.574218l-49.015626 98.023438h-143.058593l-49.019531-98.035156c-4.890626-9.8125-7.445313-20.625-7.457032-31.589844zm-17.066406 274.695312h-68.269531c-14.140625 0-25.601563-11.460937-25.601563-25.597656 0-14.140625 11.464844-25.601562 25.601563-25.601562h68.269531zm0-136.535156v68.269532h-68.269531c-.621094 0-1.203125.152343-1.816407.1875l72.074219-104.683594c6.476563-10.320313 15.617188-18.707032 26.453125-24.277344l26.019532 51.96875h-45.925782c-4.714844 0-8.535156 3.820312-8.535156 8.535156zm273.078125 179.207032h-256.011719v-170.675782h256.011719zm8.53125-187.742188h-45.925781l25.984375-51.96875c10.957031 5.652344 20.1875 14.164062 26.710937 24.628906l71.851563 104.332032c-.613281 0-1.195313-.1875-1.816407-.1875h-68.269531v-68.269532c0-4.714844-3.820312-8.535156-8.535156-8.535156zm76.804687 145.070312h-68.269531v-51.199218h68.269531c14.136719 0 25.601563 11.460937 25.601563 25.601562-.003906 14.136719-11.464844 25.597656-25.601563 25.597656zm0 0"/></svg>
